<?xml version="1.0" standalone="no"?>
<!DOCTYPE svg PUBLIC "-//W3C//DTD SVG 20010904//EN"
 "http://www.w3.org/TR/2001/REC-SVG-20010904/DTD/svg10.dtd">
<svg version="1.0" xmlns="http://www.w3.org/2000/svg"
 width="700.000000pt" height="700.000000pt" viewBox="0 0 700.000000 700.000000"
 preserveAspectRatio="xMidYMid meet">
<metadata>
Created by potrace 1.14, written by Peter Selinger 2001-2017
</metadata>
<g transform="translate(0.000000,700.000000) scale(0.100000,-0.100000)"
fill="#000000" stroke="none">
<path d="M2052 6952 c-5 -9 -19 -53 -32 -97 -12 -44 -26 -91 -31 -105 -9 -27
-246 -836 -259 -885 -8 -33 -130 -449 -162 -555 -10 -36 -21 -74 -24 -85 -3
-11 -6 -24 -8 -30 -22 -82 -31 -112 -51 -180 -64 -212 -87 -289 -90 -304 -2
-9 -39 -140 -83 -291 -123 -422 -758 -2632 -768 -2670 -2 -8 -15 -55 -29 -105
-28 -95 -32 -109 -64 -220 -179 -634 -281 -981 -370 -1259 -28 -87 -51 -160
-51 -162 0 -2 163 -2 363 -1 l362 2 17 55 c9 30 35 120 57 200 48 174 380
1329 516 1800 54 184 101 349 105 365 5 17 52 179 105 360 53 182 98 337 100
345 2 8 37 132 79 275 42 143 83 283 91 310 7 28 27 95 44 150 27 92 100 343
156 540 13 44 58 197 100 340 42 143 78 267 80 275 4 14 69 239 180 615 25 88
76 261 112 385 35 124 69 229 74 234 9 10 1816 11 1974 1 687 -43 1293 -477
1552 -1110 64 -155 105 -316 129 -505 5 -41 5 -324 0 -360 -2 -14 -7 -49 -11
-79 -14 -109 -65 -266 -130 -396 -186 -377 -495 -634 -918 -765 -109 -34 -351
-85 -369 -77 -12 4 -68 160 -103 285 -7 26 -22 76 -33 112 -78 256 -206 680
-212 705 -5 17 -45 149 -90 295 -44 146 -83 273 -85 283 -2 10 -16 57 -31 105
-15 48 -30 101 -34 117 -5 17 -22 77 -40 135 -17 58 -69 231 -115 385 -45 155
-90 295 -99 313 l-17 32 -428 0 -429 0 -11 -32 c-22 -74 -79 -264 -84 -283 -4
-17 -133 -446 -212 -710 -28 -91 -138 -462 -153 -515 -6 -19 -19 -64 -30 -100
-62 -201 -421 -1432 -442 -1515 -4 -16 -103 -361 -220 -765 -116 -404 -213
-742 -215 -751 -2 -9 -13 -49 -25 -89 -12 -40 -23 -80 -26 -89 -2 -9 -22 -79
-44 -156 -23 -77 -43 -148 -45 -159 -2 -10 -13 -48 -24 -85 -11 -36 -32 -106
-46 -156 -58 -204 -66 -231 -75 -261 -22 -67 -46 -62 341 -61 l351 2 30 95
c48 156 145 485 153 520 52 231 153 477 271 658 237 365 601 654 1029 819 127
48 370 111 505 129 14 2 51 7 82 12 32 5 61 6 66 3 5 -3 21 -51 36 -106 16
-55 34 -118 41 -140 7 -22 61 -206 120 -410 59 -203 109 -372 112 -374 7 -9
688 -10 702 -2 11 7 7 29 -22 117 -19 60 -72 233 -117 384 -79 267 -102 341
-141 464 -11 33 -19 64 -19 70 0 20 52 43 135 61 44 10 130 32 190 50 580 171
1012 473 1310 915 134 199 269 537 320 801 32 166 39 240 40 419 0 225 -3 259
-49 515 -8 41 -38 153 -62 230 -125 393 -322 721 -604 1006 -353 357 -729 559
-1240 668 -98 20 -135 26 -255 36 -38 4 -88 9 -110 12 -22 3 -612 7 -1312 9
-1203 4 -1273 3 -1281 -14z m1493 -2189 c8 -20 31 -98 50 -175 30 -119 174
-629 260 -923 15 -49 46 -157 70 -240 24 -82 66 -225 94 -318 30 -102 45 -170
39 -173 -6 -4 -60 -15 -122 -25 -348 -60 -641 -166 -943 -342 -72 -42 -136
-77 -141 -77 -6 0 -4 23 3 58 13 58 20 85 99 352 96 327 139 475 222 760 154
531 272 944 294 1030 34 131 46 143 75 73z"/>
</g>
</svg>
