<svg xmlns="http://www.w3.org/2000/svg" version="1.1" xmlns:xlink="http://www.w3.org/1999/xlink" xmlns:svgjs="http://svgjs.dev/svgjs" width="1440" height="66" preserveAspectRatio="none" viewBox="0 0 1440 66"><g mask="url(&quot;#SvgjsMask1042&quot;)" fill="none"><path d="M1260.0964229375372-3.564208193487026L1265.2165648845098 9.10858782708994 1277.8893609050867 3.988445880117429 1272.7692189581142-8.684350140459536z" fill="rgba(21, 117, 108, 0.5)" class="triangle-float2"></path><path d="M221.18035507407555 43.45180210202779L225.7544481952187 57.529413198476675 235.25796617052444 38.87770898088463z" fill="rgba(21, 117, 108, 0.5)" class="triangle-float1"></path><path d="M1373.4076831573345 37.76861440037406L1360.711470327515 53.987142451795584 1378.4947755115434 56.80374129048839z" fill="rgba(21, 117, 108, 0.5)" class="triangle-float1"></path><path d="M882.66 22.47 a19.41 19.41 0 1 0 38.82 0 a19.41 19.41 0 1 0 -38.82 0z" fill="rgba(21, 117, 108, 0.5)" class="triangle-float2"></path><path d="M1429.707,51.904C1433.57,51.97,1436.696,49.04,1438.517,45.632C1440.226,42.433,1440.328,38.602,1438.482,35.48C1436.668,32.411,1433.272,30.731,1429.707,30.73C1426.141,30.729,1422.69,32.377,1420.928,35.477C1419.185,38.544,1419.741,42.229,1421.404,45.34C1423.186,48.675,1425.927,51.839,1429.707,51.904" fill="rgba(21, 117, 108, 0.5)" class="triangle-float2"></path><path d="M1072.6604541570896 33.41410528986353L1054.1703848070215 25.16067255121251 1055.7130741364774 42.79369227380491z" fill="rgba(21, 117, 108, 0.5)" class="triangle-float3"></path><path d="M20.15,72.477C26.289,72.469,32.2,69.41,35.095,63.996C37.851,58.842,36.451,52.703,33.386,47.726C30.489,43.022,25.675,39.713,20.15,39.73C14.653,39.747,9.942,43.13,7.054,47.807C3.986,52.774,2.403,58.877,5.14,64.034C8.025,69.469,13.997,72.485,20.15,72.477" fill="rgba(21, 117, 108, 0.5)" class="triangle-float1"></path><path d="M1195 51.95 a11.03 11.03 0 1 0 22.06 0 a11.03 11.03 0 1 0 -22.06 0z" fill="rgba(21, 117, 108, 0.5)" class="triangle-float1"></path><path d="M64.66804309790328 13.317996702140952L47.01424294343646 18.380142437542446 52.076388678837944 36.03394259200927 69.73018883330477 30.971796856607778z" fill="rgba(21, 117, 108, 0.5)" class="triangle-float2"></path><path d="M1018.0165333768955 43.649638542844315L1011.724985983714 58.471595353763306 1026.546942794633 64.76314274694485 1032.8384901878144 49.94118593602585z" fill="rgba(21, 117, 108, 0.5)" class="triangle-float2"></path><path d="M1087.23 38.62 a12.79 12.79 0 1 0 25.58 0 a12.79 12.79 0 1 0 -25.58 0z" fill="rgba(21, 117, 108, 0.5)" class="triangle-float2"></path><path d="M266.21 34.34 a15.02 15.02 0 1 0 30.04 0 a15.02 15.02 0 1 0 -30.04 0z" fill="rgba(21, 117, 108, 0.5)" class="triangle-float1"></path><path d="M324.101985043554 12.487054203583238L313.5193629241722 15.521572265545064 323.3624510768058 29.87824641363684z" fill="rgba(21, 117, 108, 0.5)" class="triangle-float3"></path><path d="M72.94599660498747-0.05573368150890978L80.2804700009526 17.269090048541024 90.40555886242066 4.309567285093646z" fill="rgba(21, 117, 108, 0.5)" class="triangle-float1"></path><path d="M539.19 50.72 a16.79 16.79 0 1 0 33.58 0 a16.79 16.79 0 1 0 -33.58 0z" fill="rgba(21, 117, 108, 0.5)" class="triangle-float2"></path><path d="M192.12 27.29 a14.43 14.43 0 1 0 28.86 0 a14.43 14.43 0 1 0 -28.86 0z" fill="rgba(21, 117, 108, 0.5)" class="triangle-float2"></path><path d="M678.828,25.881C683.794,26.2,689.512,25.654,691.994,21.341C694.472,17.034,691.862,11.951,689.292,7.698C686.842,3.644,683.561,-0.242,678.828,-0.446C673.792,-0.663,669,2.251,666.676,6.724C664.503,10.907,665.773,15.838,668.298,19.819C670.623,23.485,674.496,25.603,678.828,25.881" fill="rgba(21, 117, 108, 0.5)" class="triangle-float3"></path><path d="M707.79 51.82 a11.55 11.55 0 1 0 23.1 0 a11.55 11.55 0 1 0 -23.1 0z" fill="rgba(21, 117, 108, 0.5)" class="triangle-float2"></path><path d="M596.1447706632093 27.302454733383136L608.2841100175212 30.32913197042936 611.3107872545675 18.18979261611741 599.1714479002555 15.163115379071188z" fill="rgba(21, 117, 108, 0.5)" class="triangle-float3"></path><path d="M370.09672328615255 22.98698927867646L357.1890494312718 13.948938744736601 361.0586727522127 35.89466313355719z" fill="rgba(21, 117, 108, 0.5)" class="triangle-float2"></path></g><defs><mask id="SvgjsMask1042"><rect width="1440" height="66" fill="#ffffff"></rect></mask><style>
                @keyframes float1 {
                    0%{transform: translate(0, 0)}
                    50%{transform: translate(-10px, 0)}
                    100%{transform: translate(0, 0)}
                }

                .triangle-float1 {
                    animation: float1 5s infinite;
                }

                @keyframes float2 {
                    0%{transform: translate(0, 0)}
                    50%{transform: translate(-5px, -5px)}
                    100%{transform: translate(0, 0)}
                }

                .triangle-float2 {
                    animation: float2 4s infinite;
                }

                @keyframes float3 {
                    0%{transform: translate(0, 0)}
                    50%{transform: translate(0, -10px)}
                    100%{transform: translate(0, 0)}
                }

                .triangle-float3 {
                    animation: float3 6s infinite;
                }
            </style></defs></svg>