<svg xmlns="http://www.w3.org/2000/svg" version="1.1" xmlns:xlink="http://www.w3.org/1999/xlink" xmlns:svgjs="http://svgjs.dev/svgjs" width="1440" height="66" preserveAspectRatio="none" viewBox="0 0 1440 66"><g mask="url(&quot;#SvgjsMask1020&quot;)" fill="none"><path d="M-40.81 237.6L-40.81 237.6" stroke="rgba(21, 97, 107, 1)" stroke-width="1.5"></path><path d="M-40.81 237.6L62.01 243.93" stroke="rgba(21, 97, 107, 1)" stroke-width="1.5"></path><path d="M-40.81 237.6L60.85 95.64" stroke="rgba(21, 97, 107, 1)" stroke-width="1.5"></path><path d="M-40.81 237.6L251.62 254.41" stroke="rgba(21, 97, 107, 1)" stroke-width="1.5"></path><path d="M-40.81 237.6L211.07 43.07" stroke="rgba(21, 97, 107, 1)" stroke-width="1.5"></path><path d="M-40.81 237.6L347.39 226.2" stroke="rgba(21, 97, 107, 1)" stroke-width="1.5"></path><path d="M-40.81 237.6L387.01 91.77" stroke="rgba(21, 97, 107, 1)" stroke-width="1.5"></path><path d="M60.85 95.64L60.85 95.64" stroke="rgba(21, 97, 107, 1)" stroke-width="1.5"></path><path d="M60.85 95.64L62.01 243.93" stroke="rgba(21, 97, 107, 1)" stroke-width="1.5"></path><path d="M60.85 95.64L211.07 43.07" stroke="rgba(21, 97, 107, 1)" stroke-width="1.5"></path><path d="M62.01 243.93L62.01 243.93" stroke="rgba(21, 97, 107, 1)" stroke-width="1.5"></path><path d="M211.07 43.07L211.07 43.07" stroke="rgba(21, 97, 107, 1)" stroke-width="1.5"></path><path d="M211.07 43.07L387.01 91.77" stroke="rgba(21, 97, 107, 1)" stroke-width="1.5"></path><path d="M211.07 43.07L251.62 254.41" stroke="rgba(21, 97, 107, 1)" stroke-width="1.5"></path><path d="M211.07 43.07L347.39 226.2" stroke="rgba(21, 97, 107, 1)" stroke-width="1.5"></path><path d="M211.07 43.07L62.01 243.93" stroke="rgba(21, 97, 107, 1)" stroke-width="1.5"></path><path d="M251.62 254.41L251.62 254.41" stroke="rgba(21, 97, 107, 1)" stroke-width="1.5"></path><path d="M251.62 254.41L347.39 226.2" stroke="rgba(21, 97, 107, 1)" stroke-width="1.5"></path><path d="M387.01 91.77L387.01 91.77" stroke="rgba(21, 97, 107, 1)" stroke-width="1.5"></path><path d="M387.01 91.77L347.39 226.2" stroke="rgba(21, 97, 107, 1)" stroke-width="1.5"></path><path d="M387.01 91.77L533.56 47.86" stroke="rgba(21, 97, 107, 1)" stroke-width="1.5"></path><path d="M387.01 91.77L549.31 211.85" stroke="rgba(21, 97, 107, 1)" stroke-width="1.5"></path><path d="M387.01 91.77L251.62 254.41" stroke="rgba(21, 97, 107, 1)" stroke-width="1.5"></path><path d="M387.01 91.77L697.79 88.27" stroke="rgba(21, 97, 107, 1)" stroke-width="1.5"></path><path d="M347.39 226.2L347.39 226.2" stroke="rgba(21, 97, 107, 1)" stroke-width="1.5"></path><path d="M347.39 226.2L549.31 211.85" stroke="rgba(21, 97, 107, 1)" stroke-width="1.5"></path><path d="M347.39 226.2L533.56 47.86" stroke="rgba(21, 97, 107, 1)" stroke-width="1.5"></path><path d="M533.56 47.86L533.56 47.86" stroke="rgba(21, 97, 107, 1)" stroke-width="1.5"></path><path d="M533.56 47.86L549.31 211.85" stroke="rgba(21, 97, 107, 1)" stroke-width="1.5"></path><path d="M533.56 47.86L697.79 88.27" stroke="rgba(21, 97, 107, 1)" stroke-width="1.5"></path><path d="M549.31 211.85L549.31 211.85" stroke="rgba(21, 97, 107, 1)" stroke-width="1.5"></path><path d="M549.31 211.85L709.96 237.07" stroke="rgba(21, 97, 107, 1)" stroke-width="1.5"></path><path d="M549.31 211.85L697.79 88.27" stroke="rgba(21, 97, 107, 1)" stroke-width="1.5"></path><path d="M549.31 211.85L835.47 235.69" stroke="rgba(21, 97, 107, 1)" stroke-width="1.5"></path><path d="M697.79 88.27L697.79 88.27" stroke="rgba(21, 97, 107, 1)" stroke-width="1.5"></path><path d="M697.79 88.27L709.96 237.07" stroke="rgba(21, 97, 107, 1)" stroke-width="1.5"></path><path d="M697.79 88.27L855.59 93.53" stroke="rgba(21, 97, 107, 1)" stroke-width="1.5"></path><path d="M709.96 237.07L709.96 237.07" stroke="rgba(21, 97, 107, 1)" stroke-width="1.5"></path><path d="M709.96 237.07L835.47 235.69" stroke="rgba(21, 97, 107, 1)" stroke-width="1.5"></path><path d="M709.96 237.07L855.59 93.53" stroke="rgba(21, 97, 107, 1)" stroke-width="1.5"></path><path d="M709.96 237.07L533.56 47.86" stroke="rgba(21, 97, 107, 1)" stroke-width="1.5"></path><path d="M855.59 93.53L855.59 93.53" stroke="rgba(21, 97, 107, 1)" stroke-width="1.5"></path><path d="M855.59 93.53L985.86 72.84" stroke="rgba(21, 97, 107, 1)" stroke-width="1.5"></path><path d="M855.59 93.53L835.47 235.69" stroke="rgba(21, 97, 107, 1)" stroke-width="1.5"></path><path d="M855.59 93.53L945.87 -39.11" stroke="rgba(21, 97, 107, 1)" stroke-width="1.5"></path><path d="M835.47 235.69L835.47 235.69" stroke="rgba(21, 97, 107, 1)" stroke-width="1.5"></path><path d="M945.87 -39.11L945.87 -39.11" stroke="rgba(21, 97, 107, 1)" stroke-width="1.5"></path><path d="M945.87 -39.11L985.86 72.84" stroke="rgba(21, 97, 107, 1)" stroke-width="1.5"></path><path d="M945.87 -39.11L1099.82 -82.55" stroke="rgba(21, 97, 107, 1)" stroke-width="1.5"></path><path d="M945.87 -39.11L1161.74 75.18" stroke="rgba(21, 97, 107, 1)" stroke-width="1.5"></path><path d="M985.86 72.84L985.86 72.84" stroke="rgba(21, 97, 107, 1)" stroke-width="1.5"></path><path d="M985.86 72.84L998.47 213.49" stroke="rgba(21, 97, 107, 1)" stroke-width="1.5"></path><path d="M985.86 72.84L1161.74 75.18" stroke="rgba(21, 97, 107, 1)" stroke-width="1.5"></path><path d="M998.47 213.49L998.47 213.49" stroke="rgba(21, 97, 107, 1)" stroke-width="1.5"></path><path d="M998.47 213.49L1116.29 207.33" stroke="rgba(21, 97, 107, 1)" stroke-width="1.5"></path><path d="M998.47 213.49L835.47 235.69" stroke="rgba(21, 97, 107, 1)" stroke-width="1.5"></path><path d="M998.47 213.49L855.59 93.53" stroke="rgba(21, 97, 107, 1)" stroke-width="1.5"></path><path d="M1099.82 -82.55L1099.82 -82.55" stroke="rgba(21, 97, 107, 1)" stroke-width="1.5"></path><path d="M1099.82 -82.55L1161.74 75.18" stroke="rgba(21, 97, 107, 1)" stroke-width="1.5"></path><path d="M1099.82 -82.55L985.86 72.84" stroke="rgba(21, 97, 107, 1)" stroke-width="1.5"></path><path d="M1099.82 -82.55L1274.54 80.57" stroke="rgba(21, 97, 107, 1)" stroke-width="1.5"></path><path d="M1099.82 -82.55L1116.29 207.33" stroke="rgba(21, 97, 107, 1)" stroke-width="1.5"></path><path d="M1161.74 75.18L1161.74 75.18" stroke="rgba(21, 97, 107, 1)" stroke-width="1.5"></path><path d="M1161.74 75.18L1274.54 80.57" stroke="rgba(21, 97, 107, 1)" stroke-width="1.5"></path><path d="M1161.74 75.18L1116.29 207.33" stroke="rgba(21, 97, 107, 1)" stroke-width="1.5"></path><path d="M1161.74 75.18L1278.73 243.72" stroke="rgba(21, 97, 107, 1)" stroke-width="1.5"></path><path d="M1116.29 207.33L1116.29 207.33" stroke="rgba(21, 97, 107, 1)" stroke-width="1.5"></path><path d="M1274.54 80.57L1274.54 80.57" stroke="rgba(21, 97, 107, 1)" stroke-width="1.5"></path><path d="M1274.54 80.57L1404.58 107.61" stroke="rgba(21, 97, 107, 1)" stroke-width="1.5"></path><path d="M1274.54 80.57L1278.73 243.72" stroke="rgba(21, 97, 107, 1)" stroke-width="1.5"></path><path d="M1274.54 80.57L1395.67 195.96" stroke="rgba(21, 97, 107, 1)" stroke-width="1.5"></path><path d="M1278.73 243.72L1278.73 243.72" stroke="rgba(21, 97, 107, 1)" stroke-width="1.5"></path><path d="M1278.73 243.72L1395.67 195.96" stroke="rgba(21, 97, 107, 1)" stroke-width="1.5"></path><path d="M1278.73 243.72L1116.29 207.33" stroke="rgba(21, 97, 107, 1)" stroke-width="1.5"></path><path d="M1447.39 -110.6L1447.39 -110.6" stroke="rgba(21, 97, 107, 1)" stroke-width="1.5"></path><path d="M1447.39 -110.6L1591.64 -111.09" stroke="rgba(21, 97, 107, 1)" stroke-width="1.5"></path><path d="M1447.39 -110.6L1404.58 107.61" stroke="rgba(21, 97, 107, 1)" stroke-width="1.5"></path><path d="M1404.58 107.61L1404.58 107.61" stroke="rgba(21, 97, 107, 1)" stroke-width="1.5"></path><path d="M1404.58 107.61L1395.67 195.96" stroke="rgba(21, 97, 107, 1)" stroke-width="1.5"></path><path d="M1404.58 107.61L1567.34 109.81" stroke="rgba(21, 97, 107, 1)" stroke-width="1.5"></path><path d="M1395.67 195.96L1395.67 195.96" stroke="rgba(21, 97, 107, 1)" stroke-width="1.5"></path><path d="M1395.67 195.96L1567.34 109.81" stroke="rgba(21, 97, 107, 1)" stroke-width="1.5"></path><path d="M1395.67 195.96L1161.74 75.18" stroke="rgba(21, 97, 107, 1)" stroke-width="1.5"></path><path d="M1591.64 -111.09L1591.64 -111.09" stroke="rgba(21, 97, 107, 1)" stroke-width="1.5"></path><path d="M1591.64 -111.09L1567.34 109.81" stroke="rgba(21, 97, 107, 1)" stroke-width="1.5"></path><path d="M1591.64 -111.09L1404.58 107.61" stroke="rgba(21, 97, 107, 1)" stroke-width="1.5"></path><path d="M1591.64 -111.09L1395.67 195.96" stroke="rgba(21, 97, 107, 1)" stroke-width="1.5"></path><path d="M1567.34 109.81L1567.34 109.81" stroke="rgba(21, 97, 107, 1)" stroke-width="1.5"></path><circle r="5" cx="-40.81" cy="237.6" fill="rgba(21, 97, 107, 1)"></circle><circle r="5" cx="60.85" cy="95.64" fill="rgba(21, 97, 107, 1)"></circle><circle r="5" cx="62.01" cy="243.93" fill="rgba(21, 97, 107, 1)"></circle><circle r="5" cx="211.07" cy="43.07" fill="rgba(21, 97, 107, 1)"></circle><circle r="5" cx="251.62" cy="254.41" fill="rgba(21, 97, 107, 1)"></circle><circle r="5" cx="387.01" cy="91.77" fill="rgba(21, 97, 107, 1)"></circle><circle r="5" cx="347.39" cy="226.2" fill="rgba(21, 97, 107, 1)"></circle><circle r="5" cx="533.56" cy="47.86" fill="rgba(21, 97, 107, 1)"></circle><circle r="5" cx="549.31" cy="211.85" fill="rgba(21, 97, 107, 1)"></circle><circle r="5" cx="697.79" cy="88.27" fill="rgba(21, 97, 107, 1)"></circle><circle r="5" cx="709.96" cy="237.07" fill="rgba(21, 97, 107, 1)"></circle><circle r="5" cx="855.59" cy="93.53" fill="rgba(21, 97, 107, 1)"></circle><circle r="5" cx="835.47" cy="235.69" fill="rgba(21, 97, 107, 1)"></circle><circle r="5" cx="945.87" cy="-39.11" fill="rgba(21, 97, 107, 1)"></circle><circle r="5" cx="985.86" cy="72.84" fill="rgba(21, 97, 107, 1)"></circle><circle r="5" cx="998.47" cy="213.49" fill="rgba(21, 97, 107, 1)"></circle><circle r="5" cx="1099.82" cy="-82.55" fill="rgba(21, 97, 107, 1)"></circle><circle r="5" cx="1161.74" cy="75.18" fill="rgba(21, 97, 107, 1)"></circle><circle r="5" cx="1116.29" cy="207.33" fill="rgba(21, 97, 107, 1)"></circle><circle r="5" cx="1274.54" cy="80.57" fill="rgba(21, 97, 107, 1)"></circle><circle r="5" cx="1278.73" cy="243.72" fill="rgba(21, 97, 107, 1)"></circle><circle r="5" cx="1447.39" cy="-110.6" fill="rgba(21, 97, 107, 1)"></circle><circle r="5" cx="1404.58" cy="107.61" fill="rgba(21, 97, 107, 1)"></circle><circle r="5" cx="1395.67" cy="195.96" fill="rgba(21, 97, 107, 1)"></circle><circle r="5" cx="1591.64" cy="-111.09" fill="rgba(21, 97, 107, 1)"></circle><circle r="5" cx="1567.34" cy="109.81" fill="rgba(21, 97, 107, 1)"></circle><path d="M238.06 106.32L238.06 106.32" stroke="hsl(174.39999999999998, 69.6%, 35.2%)" stroke-width="1.5"></path><path d="M238.06 106.32L248.77 216.51" stroke="hsl(174.39999999999998, 69.6%, 35.2%)" stroke-width="1.5"></path><path d="M238.06 106.32L105.26 63.37" stroke="hsl(174.39999999999998, 69.6%, 35.2%)" stroke-width="1.5"></path><path d="M238.06 106.32L374.36 193.45" stroke="hsl(174.39999999999998, 69.6%, 35.2%)" stroke-width="1.5"></path><path d="M238.06 106.32L78.6 245.62" stroke="hsl(174.39999999999998, 69.6%, 35.2%)" stroke-width="1.5"></path><path d="M238.06 106.32L559.55 195.95" stroke="hsl(174.39999999999998, 69.6%, 35.2%)" stroke-width="1.5"></path><path d="M238.06 106.32L-102.92 249.06" stroke="hsl(174.39999999999998, 69.6%, 35.2%)" stroke-width="1.5"></path><path d="M1604.45 51.74L1604.45 51.74" stroke="hsl(174.39999999999998, 69.6%, 35.2%)" stroke-width="1.5"></path><path d="M1604.45 51.74L1603.36 -99.55" stroke="hsl(174.39999999999998, 69.6%, 35.2%)" stroke-width="1.5"></path><path d="M-102.92 249.06L-102.92 249.06" stroke="hsl(174.39999999999998, 69.6%, 35.2%)" stroke-width="1.5"></path><path d="M-102.92 249.06L78.6 245.62" stroke="hsl(174.39999999999998, 69.6%, 35.2%)" stroke-width="1.5"></path><path d="M-102.92 249.06L105.26 63.37" stroke="hsl(174.39999999999998, 69.6%, 35.2%)" stroke-width="1.5"></path><path d="M-102.92 249.06L248.77 216.51" stroke="hsl(174.39999999999998, 69.6%, 35.2%)" stroke-width="1.5"></path><path d="M-102.92 249.06L374.36 193.45" stroke="hsl(174.39999999999998, 69.6%, 35.2%)" stroke-width="1.5"></path><path d="M105.26 63.37L105.26 63.37" stroke="hsl(174.39999999999998, 69.6%, 35.2%)" stroke-width="1.5"></path><path d="M105.26 63.37L78.6 245.62" stroke="hsl(174.39999999999998, 69.6%, 35.2%)" stroke-width="1.5"></path><path d="M78.6 245.62L78.6 245.62" stroke="hsl(174.39999999999998, 69.6%, 35.2%)" stroke-width="1.5"></path><path d="M78.6 245.62L248.77 216.51" stroke="hsl(174.39999999999998, 69.6%, 35.2%)" stroke-width="1.5"></path><path d="M78.6 245.62L374.36 193.45" stroke="hsl(174.39999999999998, 69.6%, 35.2%)" stroke-width="1.5"></path><path d="M248.77 216.51L248.77 216.51" stroke="hsl(174.39999999999998, 69.6%, 35.2%)" stroke-width="1.5"></path><path d="M248.77 216.51L374.36 193.45" stroke="hsl(174.39999999999998, 69.6%, 35.2%)" stroke-width="1.5"></path><path d="M248.77 216.51L105.26 63.37" stroke="hsl(174.39999999999998, 69.6%, 35.2%)" stroke-width="1.5"></path><path d="M374.36 193.45L374.36 193.45" stroke="hsl(174.39999999999998, 69.6%, 35.2%)" stroke-width="1.5"></path><path d="M559.55 195.95L559.55 195.95" stroke="hsl(174.39999999999998, 69.6%, 35.2%)" stroke-width="1.5"></path><path d="M559.55 195.95L703.84 225.96" stroke="hsl(174.39999999999998, 69.6%, 35.2%)" stroke-width="1.5"></path><path d="M559.55 195.95L660.77 82.36" stroke="hsl(174.39999999999998, 69.6%, 35.2%)" stroke-width="1.5"></path><path d="M559.55 195.95L374.36 193.45" stroke="hsl(174.39999999999998, 69.6%, 35.2%)" stroke-width="1.5"></path><path d="M559.55 195.95L808.13 97.15" stroke="hsl(174.39999999999998, 69.6%, 35.2%)" stroke-width="1.5"></path><path d="M660.77 82.36L660.77 82.36" stroke="hsl(174.39999999999998, 69.6%, 35.2%)" stroke-width="1.5"></path><path d="M660.77 82.36L808.13 97.15" stroke="hsl(174.39999999999998, 69.6%, 35.2%)" stroke-width="1.5"></path><path d="M660.77 82.36L703.84 225.96" stroke="hsl(174.39999999999998, 69.6%, 35.2%)" stroke-width="1.5"></path><path d="M703.84 225.96L703.84 225.96" stroke="hsl(174.39999999999998, 69.6%, 35.2%)" stroke-width="1.5"></path><path d="M808.13 97.15L808.13 97.15" stroke="hsl(174.39999999999998, 69.6%, 35.2%)" stroke-width="1.5"></path><path d="M808.13 97.15L862.39 243.45" stroke="hsl(174.39999999999998, 69.6%, 35.2%)" stroke-width="1.5"></path><path d="M808.13 97.15L703.84 225.96" stroke="hsl(174.39999999999998, 69.6%, 35.2%)" stroke-width="1.5"></path><path d="M808.13 97.15L1158.98 49.98" stroke="hsl(174.39999999999998, 69.6%, 35.2%)" stroke-width="1.5"></path><path d="M862.39 243.45L862.39 243.45" stroke="hsl(174.39999999999998, 69.6%, 35.2%)" stroke-width="1.5"></path><path d="M862.39 243.45L703.84 225.96" stroke="hsl(174.39999999999998, 69.6%, 35.2%)" stroke-width="1.5"></path><path d="M1158.98 49.98L1158.98 49.98" stroke="hsl(174.39999999999998, 69.6%, 35.2%)" stroke-width="1.5"></path><path d="M1158.98 49.98L1276.64 71.4" stroke="hsl(174.39999999999998, 69.6%, 35.2%)" stroke-width="1.5"></path><path d="M1158.98 49.98L1303.41 -80.87" stroke="hsl(174.39999999999998, 69.6%, 35.2%)" stroke-width="1.5"></path><path d="M1158.98 49.98L1143.77 261.87" stroke="hsl(174.39999999999998, 69.6%, 35.2%)" stroke-width="1.5"></path><path d="M1158.98 49.98L1255.24 243.98" stroke="hsl(174.39999999999998, 69.6%, 35.2%)" stroke-width="1.5"></path><path d="M1158.98 49.98L1437.81 60.6" stroke="hsl(174.39999999999998, 69.6%, 35.2%)" stroke-width="1.5"></path><path d="M1143.77 261.87L1143.77 261.87" stroke="hsl(174.39999999999998, 69.6%, 35.2%)" stroke-width="1.5"></path><path d="M1143.77 261.87L1255.24 243.98" stroke="hsl(174.39999999999998, 69.6%, 35.2%)" stroke-width="1.5"></path><path d="M1143.77 261.87L1276.64 71.4" stroke="hsl(174.39999999999998, 69.6%, 35.2%)" stroke-width="1.5"></path><path d="M1303.41 -80.87L1303.41 -80.87" stroke="hsl(174.39999999999998, 69.6%, 35.2%)" stroke-width="1.5"></path><path d="M1303.41 -80.87L1276.64 71.4" stroke="hsl(174.39999999999998, 69.6%, 35.2%)" stroke-width="1.5"></path><path d="M1303.41 -80.87L1437.81 60.6" stroke="hsl(174.39999999999998, 69.6%, 35.2%)" stroke-width="1.5"></path><path d="M1303.41 -80.87L1603.36 -99.55" stroke="hsl(174.39999999999998, 69.6%, 35.2%)" stroke-width="1.5"></path><path d="M1303.41 -80.87L1427.99 216.27" stroke="hsl(174.39999999999998, 69.6%, 35.2%)" stroke-width="1.5"></path><path d="M1303.41 -80.87L1255.24 243.98" stroke="hsl(174.39999999999998, 69.6%, 35.2%)" stroke-width="1.5"></path><path d="M1276.64 71.4L1276.64 71.4" stroke="hsl(174.39999999999998, 69.6%, 35.2%)" stroke-width="1.5"></path><path d="M1276.64 71.4L1437.81 60.6" stroke="hsl(174.39999999999998, 69.6%, 35.2%)" stroke-width="1.5"></path><path d="M1276.64 71.4L1255.24 243.98" stroke="hsl(174.39999999999998, 69.6%, 35.2%)" stroke-width="1.5"></path><path d="M1276.64 71.4L1427.99 216.27" stroke="hsl(174.39999999999998, 69.6%, 35.2%)" stroke-width="1.5"></path><path d="M1255.24 243.98L1255.24 243.98" stroke="hsl(174.39999999999998, 69.6%, 35.2%)" stroke-width="1.5"></path><path d="M1255.24 243.98L1427.99 216.27" stroke="hsl(174.39999999999998, 69.6%, 35.2%)" stroke-width="1.5"></path><path d="M1437.81 60.6L1437.81 60.6" stroke="hsl(174.39999999999998, 69.6%, 35.2%)" stroke-width="1.5"></path><path d="M1437.81 60.6L1427.99 216.27" stroke="hsl(174.39999999999998, 69.6%, 35.2%)" stroke-width="1.5"></path><path d="M1427.99 216.27L1427.99 216.27" stroke="hsl(174.39999999999998, 69.6%, 35.2%)" stroke-width="1.5"></path><path d="M1427.99 216.27L1603.25 250.17" stroke="hsl(174.39999999999998, 69.6%, 35.2%)" stroke-width="1.5"></path><path d="M1603.36 -99.55L1603.36 -99.55" stroke="hsl(174.39999999999998, 69.6%, 35.2%)" stroke-width="1.5"></path><path d="M1603.36 -99.55L1437.81 60.6" stroke="hsl(174.39999999999998, 69.6%, 35.2%)" stroke-width="1.5"></path><path d="M1603.36 -99.55L1603.25 250.17" stroke="hsl(174.39999999999998, 69.6%, 35.2%)" stroke-width="1.5"></path><path d="M1603.25 250.17L1603.25 250.17" stroke="hsl(174.39999999999998, 69.6%, 35.2%)" stroke-width="1.5"></path><path d="M1603.25 250.17L1604.45 51.74" stroke="hsl(174.39999999999998, 69.6%, 35.2%)" stroke-width="1.5"></path><path d="M1603.25 250.17L1437.81 60.6" stroke="hsl(174.39999999999998, 69.6%, 35.2%)" stroke-width="1.5"></path><path d="M1603.25 250.17L1255.24 243.98" stroke="hsl(174.39999999999998, 69.6%, 35.2%)" stroke-width="1.5"></path><path d="M1603.25 250.17L1276.64 71.4" stroke="hsl(174.39999999999998, 69.6%, 35.2%)" stroke-width="1.5"></path><circle r="25" cx="238.06" cy="106.32" fill="url(&quot;#SvgjsRadialGradient1021&quot;)"></circle><circle r="25" cx="1604.45" cy="51.74" fill="url(&quot;#SvgjsRadialGradient1021&quot;)"></circle><circle r="5" cx="-102.92" cy="249.06" fill="#8abab6"></circle><circle r="5" cx="105.26" cy="63.37" fill="#8abab6"></circle><circle r="5" cx="78.6" cy="245.62" fill="#8abab6"></circle><circle r="5" cx="248.77" cy="216.51" fill="#8abab6"></circle><circle r="5" cx="374.36" cy="193.45" fill="#8abab6"></circle><circle r="5" cx="559.55" cy="195.95" fill="#8abab6"></circle><circle r="5" cx="660.77" cy="82.36" fill="#8abab6"></circle><circle r="5" cx="703.84" cy="225.96" fill="#8abab6"></circle><circle r="5" cx="808.13" cy="97.15" fill="#8abab6"></circle><circle r="5" cx="862.39" cy="243.45" fill="#8abab6"></circle><circle r="5" cx="1158.98" cy="49.98" fill="#8abab6"></circle><circle r="5" cx="1143.77" cy="261.87" fill="#8abab6"></circle><circle r="5" cx="1303.41" cy="-80.87" fill="#8abab6"></circle><circle r="5" cx="1276.64" cy="71.4" fill="#8abab6"></circle><circle r="5" cx="1255.24" cy="243.98" fill="#8abab6"></circle><circle r="5" cx="1437.81" cy="60.6" fill="#8abab6"></circle><circle r="5" cx="1427.99" cy="216.27" fill="#8abab6"></circle><circle r="5" cx="1603.36" cy="-99.55" fill="#8abab6"></circle><circle r="5" cx="1603.25" cy="250.17" fill="#8abab6"></circle></g><defs><mask id="SvgjsMask1020"><rect width="1440" height="66" fill="#ffffff"></rect></mask><radialGradient id="SvgjsRadialGradient1021"><stop stop-color="#ffffff" offset="0.1"></stop><stop stop-color="rgba(21, 117, 108, 1)" offset="0.2"></stop><stop stop-color="rgba(21, 117, 108, 0)" offset="1"></stop></radialGradient></defs></svg>