<svg xmlns="http://www.w3.org/2000/svg" version="1.1" xmlns:xlink="http://www.w3.org/1999/xlink" xmlns:svgjs="http://svgjs.dev/svgjs" width="1440" height="250" preserveAspectRatio="none" viewBox="0 0 1440 250"><g mask="url(&quot;#SvgjsMask1009&quot;)" fill="none"><path d="M23 250L273 0L316.5 0L66.5 250z" fill="url(&quot;#SvgjsLinearGradient1010&quot;)"></path><path d="M267.6 250L517.6 0L817.6 0L567.6 250z" fill="url(&quot;#SvgjsLinearGradient1010&quot;)"></path><path d="M502.20000000000005 250L752.2 0L951.7 0L701.7 250z" fill="url(&quot;#SvgjsLinearGradient1010&quot;)"></path><path d="M752.8000000000001 250L1002.8000000000001 0L1185.8000000000002 0L935.8000000000001 250z" fill="url(&quot;#SvgjsLinearGradient1010&quot;)"></path><path d="M1435 250L1185 0L955.5 0L1205.5 250z" fill="url(&quot;#SvgjsLinearGradient1011&quot;)"></path><path d="M1162.4 250L912.4000000000001 0L823.9000000000001 0L1073.9 250z" fill="url(&quot;#SvgjsLinearGradient1011&quot;)"></path><path d="M924.8 250L674.8 0L382.29999999999995 0L632.3 250z" fill="url(&quot;#SvgjsLinearGradient1011&quot;)"></path><path d="M704.1999999999999 250L454.19999999999993 0L149.69999999999993 0L399.69999999999993 250z" fill="url(&quot;#SvgjsLinearGradient1011&quot;)"></path><path d="M1220.6344116324256 250L1440 30.63441163242547L1440 250z" fill="url(&quot;#SvgjsLinearGradient1010&quot;)"></path><path d="M0 250L219.36558836757453 250L 0 30.63441163242547z" fill="url(&quot;#SvgjsLinearGradient1011&quot;)"></path></g><defs><mask id="SvgjsMask1009"><rect width="1440" height="250" fill="#ffffff"></rect></mask><linearGradient x1="0%" y1="100%" x2="100%" y2="0%" id="SvgjsLinearGradient1010"><stop stop-color="rgba(14, 93, 86, 1)" offset="0"></stop><stop stop-opacity="0" stop-color="rgba(14, 93, 86, 1)" offset="0.66"></stop></linearGradient><linearGradient x1="100%" y1="100%" x2="0%" y2="0%" id="SvgjsLinearGradient1011"><stop stop-color="rgba(14, 93, 86, 1)" offset="0"></stop><stop stop-opacity="0" stop-color="rgba(14, 93, 86, 1)" offset="0.66"></stop></linearGradient></defs></svg>