<?xml version="1.0" encoding="UTF-8" standalone="no"?>
<!DOCTYPE svg PUBLIC "-//W3C//DTD SVG 1.1//EN" "http://www.w3.org/Graphics/SVG/1.1/DTD/svg11.dtd">
<svg xmlns="http://www.w3.org/2000/svg" version="1.1" viewBox="0 0 415 415" height="36px" width="36px">
<path fill="#000000" d="
  M 125.74 415.02
  L 83.76 414.88
  Q 108.37 328.76 133.07 242.68
  C 148.95 187.32 165.86 131.96 182.42 76.02
  A 1.02 1.00 -81.4 0 1 183.38 75.30
  L 233.00 75.23
  A 0.98 0.96 -16.4 0 1 233.84 75.68
  Q 235.06 77.54 236.06 80.94
  Q 249.41 126.70 279.19 225.27
  Q 281.20 231.91 283.51 238.46
  Q 284.17 240.32 286.73 239.45
  Q 288.08 238.99 289.50 238.76
  C 312.51 235.00 333.88 225.51 349.15 207.41
  Q 367.42 185.74 369.31 158.51
  C 373.30 100.92 332.41 51.73 275.21 44.60
  Q 268.38 43.74 255.25 43.76
  Q 204.33 43.80 153.01 43.66
  A 1.00 1.00 0.0 0 0 152.05 44.38
  C 116.81 164.90 81.58 285.69 47.07 406.57
  Q 47.06 406.62 46.17 410.48
  Q 45.63 412.87 44.49 415.00
  L 1.69 414.94
  Q 2.64 411.47 6.74 399.25
  Q 9.52 390.95 20.41 352.79
  C 53.73 236.02 87.26 119.27 121.44 2.74
  A 0.99 0.99 0.0 0 1 122.39 2.03
  Q 187.67 1.52 252.93 2.04
  C 275.52 2.22 289.85 2.78 309.78 8.53
  C 370.68 26.09 410.99 82.07 413.24 144.75
  C 413.79 159.92 410.56 176.93 405.75 191.63
  C 389.67 240.81 348.64 268.65 299.75 279.03
  Q 296.66 279.69 294.91 281.19
  A 1.00 1.00 0.0 0 0 294.61 282.25
  C 298.87 296.13 302.73 308.31 307.20 323.91
  Q 309.69 332.62 312.75 341.53
  Q 313.54 343.83 311.19 343.82
  L 271.41 343.52
  A 1.01 1.00 82.1 0 1 270.46 342.80
  L 252.88 282.53
  A 1.00 1.00 0.0 0 0 251.79 281.82
  C 238.65 283.58 224.88 286.25 212.84 290.96
  C 176.00 305.38 147.48 334.82 137.78 373.77
  Q 134.69 386.16 125.74 415.02
  Z
  M 171.26 256.13
  Q 169.82 261.00 168.68 265.96
  Q 168.16 268.21 170.16 267.04
  Q 174.92 264.27 179.67 261.48
  C 198.01 250.72 219.26 244.19 240.23 241.54
  A 0.99 0.99 0.0 0 0 241.06 240.27
  Q 228.02 196.41 215.51 152.42
  Q 214.56 149.07 212.84 141.99
  C 212.78 141.75 209.54 125.29 207.23 131.50
  C 206.12 134.51 205.47 138.29 204.77 140.74
  Q 188.36 198.54 171.26 256.13
  Z"
/>
</svg>
