<?xml version="1.0" encoding="UTF-8" standalone="no"?>
<!DOCTYPE svg PUBLIC "-//W3C//DTD SVG 1.1//EN" "http://www.w3.org/Graphics/SVG/1.1/DTD/svg11.dtd">
<svg xmlns="http://www.w3.org/2000/svg" version="1.1" viewBox="0 0 512 512">
<path fill="#000000" d="
  M 66.68 427.95
  C -29.83 318.39 -15.13 150.75 98.07 59.31
  C 196.33 -20.05 339.71 -15.50 432.52 70.84
  Q 439.78 77.60 446.39 85.24
  C 545.90 200.44 524.81 376.68 399.09 463.80
  C 301.40 531.49 168.42 522.82 80.66 442.23
  Q 73.34 435.51 66.68 427.95
  Z
  M 481.89 255.99
  A 225.89 225.89 0.0 0 0 256.00 30.10
  A 225.89 225.89 0.0 0 0 30.11 255.99
  A 225.89 225.89 0.0 0 0 256.00 481.88
  A 225.89 225.89 0.0 0 0 481.89 255.99
  Z"
/>
<path fill="#000000" d="
  M 178.73 162.29
  C 209.88 162.54 236.30 185.34 239.14 216.58
  C 241.81 245.97 221.83 272.37 193.52 279.29
  C 181.32 282.27 165.09 281.38 151.27 281.20
  A 1.00 0.99 -89.4 0 0 150.26 282.20
  Q 150.23 306.71 150.26 331.78
  Q 150.26 337.36 148.96 340.46
  C 143.60 353.21 125.36 352.51 121.12 339.24
  Q 120.24 336.51 120.24 330.16
  Q 120.26 255.40 120.24 180.65
  C 120.24 166.45 126.60 162.24 140.02 162.24
  Q 172.01 162.23 178.73 162.29
  Z
  M 188.61 249.42
  C 221.65 238.21 212.29 192.25 178.23 192.21
  Q 164.61 192.20 151.17 192.27
  A 1.00 1.00 0.0 0 0 150.17 193.27
  L 150.49 250.14
  A 1.01 1.00 -89.7 0 0 151.47 251.14
  Q 164.14 251.38 176.81 251.09
  Q 184.16 250.93 188.61 249.42
  Z"
/>
<path fill="#000000" d="
  M 361.80 335.99
  A 1.00 1.00 0.0 0 0 360.32 335.24
  Q 348.22 342.01 334.74 343.15
  C 308.64 345.35 284.45 331.12 273.22 307.63
  C 257.89 275.56 273.36 236.64 306.59 223.51
  Q 333.48 212.89 360.39 227.17
  A 1.00 1.00 0.0 0 0 361.83 226.50
  Q 362.04 225.56 362.21 224.61
  C 364.18 213.24 378.22 209.39 386.38 216.30
  C 390.77 220.03 391.73 224.35 391.74 230.42
  Q 391.77 282.96 391.74 335.50
  C 391.74 349.10 373.20 354.64 364.89 343.72
  Q 362.35 340.38 361.80 335.99
  Z
  M 361.69 281.19
  A 32.16 32.16 0.0 0 0 329.53 249.03
  A 32.16 32.16 0.0 0 0 297.37 281.19
  A 32.16 32.16 0.0 0 0 329.53 313.35
  A 32.16 32.16 0.0 0 0 361.69 281.19
  Z"
/>
</svg>
